<?xml version="1.0" standalone="no"?><!DOCTYPE svg PUBLIC "-//W3C//DTD SVG 1.1//EN" "http://www.w3.org/Graphics/SVG/1.1/DTD/svg11.dtd"><svg t="1645343850193" class="icon" viewBox="0 0 1024 1024" version="1.1" xmlns="http://www.w3.org/2000/svg" p-id="11060" xmlns:xlink="http://www.w3.org/1999/xlink" width="200" height="200"><defs><style type="text/css"></style></defs><path d="M511.995136 896.001216m-127.998784 0a127.998784 127.998784 0 1 0 255.997568 0 127.998784 127.998784 0 1 0-255.997568 0Z" p-id="11061"></path><path d="M284.669296 581.124207L341.500756 665.603405a307.197082 307.197082 0 0 1 340.476765 0l56.83146-84.991193a409.596109 409.596109 0 0 0-454.139685 0zM142.846643 368.134231L199.678103 453.125423a563.19465 563.19465 0 0 1 624.634066 0l56.83146-84.991192a665.593677 665.593677 0 0 0-737.784991 0z" p-id="11062"></path><path d="M511.995136 0.009728A915.959298 915.959298 0 0 0 0 153.608269l57.85545 86.527178a816.632242 816.632242 0 0 1 908.279372 0L1023.990272 153.608269a915.959298 915.959298 0 0 0-511.995136-153.598541z" p-id="11063"></path></svg>